<svg height="512" viewBox="0 0 448 512" width="448" xmlns="http://www.w3.org/2000/svg"><path d="m48 32c-26.5 0-48 21.5-48 48v352c0 26.5 21.5 48 48 48h352c26.5 0 48-21.5 48-48v-352c0-26.5-21.5-48-48-48zm140.69531 64h178.24024l-16.47071 12.85938v22.69335c6.1159.78532 5.46875 4.46019 5.46875 8.85743v107.22265c0 4.96563-4.06205 9.0293-9.02734 9.0293h-3.32422c-4.96563 0-9.0293-4.06403-9.0293-9.0293v-107.22265c0-4.40781-.63995-8.08659 5.52149-8.86133v-14.26563l-47.42383 38.89258c.54795 1.01573 1.06775 1.6675 1.5625 2.51953 4.16684 7.37735 6.28906 16.54919 6.28906 27.75977 0 8.59325-1.43204 16.31497-4.33593 23.13086-2.89082 6.81736-6.4066 12.38451-10.50782 16.67383-4.10119 4.30429-8.21545 8.23614-12.33008 11.77734-4.11326 3.54813-7.62906 7.24664-10.50781 11.08789-2.90139 3.82814-4.34765 7.78747-4.34765 11.88867 0 4.10814 1.87594 8.28085 5.61328 12.48633 3.72386 4.2186 8.30529 8.30635 13.72265 12.34375 5.42938 4.01043 10.84634 8.46278 16.26368 13.30664 5.42904 4.83584 9.98706 11.06107 13.71093 18.62109 3.75047 7.58518 5.625 15.93732 5.625 25.11719 0 12.10928-3.08756 23.04599-9.24609 32.7793-6.17204 9.69317-14.21877 17.42887-24.10156 23.09961-9.90904 5.70939-20.50722 10.00631-31.8086 12.91015-11.32797 2.87733-22.56501 4.32227-33.78906 4.32227-7.08423 0-14.23265-.5475-21.42187-1.66602-7.21219-1.12-14.43823-3.09828-21.7168-5.88476-7.29167-2.80655-13.75106-6.25079-19.34961-10.39063-5.61205-4.09467-10.12984-9.38173-13.59375-15.82031-3.46392-6.43852-5.18359-13.67857-5.18359-21.71875 0-9.53863 2.65694-18.38532 7.98242-26.63476 5.32512-8.18928 12.3823-15.02552 21.1582-20.44141 15.31325-9.52549 39.33645-15.4113 72.03125-17.63672-7.47326-9.34283-11.22266-18.13975-11.22266-26.36914 0-4.68271 1.22186-9.69984 3.64454-15.11719-3.90652.54687-7.9286.85352-12.03125.85352-17.56273 0-32.39541-5.70952-44.43946-17.20703-12.04402-11.47856-18.05859-25.8462-18.05859-43.2168 0-1.81599.05219-3.41866.18164-5.18945h-71.378907zm31.37891 38.33398c-11.19892 0-19.79186 4.02906-25.78125 12.07032-5.9879 8.02012-8.98438 17.73465-8.98438 29.14648 0 9.71981 1.64061 19.61644 4.92188 29.70703 3.2681 10.08548 8.62123 19.08948 16.12109 27.02539 7.47324 7.95594 16.17192 11.92578 26.05469 11.92578 11.01591 0 19.62286-3.68944 25.79492-11.07226 6.14505-7.37043 9.23047-16.67343 9.23047-27.87891 0-9.54517-1.6264-19.537-4.89453-29.98633-3.25608-10.46247-8.68505-19.90262-16.26367-28.30664-7.55234-8.4321-16.30333-12.63086-26.19922-12.63086zm18.51758 172.08008c-8.03469 0-15.93905.71228-23.69922 2.13086-7.76017 1.37996-15.41675 3.70986-22.96875 6.99805-7.57861 3.26958-13.69819 8.07499-18.35938 14.42969-4.68784 6.34667-7.01953 13.82169-7.01953 22.42187 0 8.19582 2.05913 15.50628 6.17383 21.87305 4.10265 6.32768 9.51795 11.28394 16.25 14.83203 6.73201 3.55471 13.78885 6.23613 21.1582 8 7.3828 1.75184 14.89682 2.66406 22.55274 2.66406 15.14262 0 28.17578-3.41115 39.11328-10.22851 10.91054-6.8159 16.38086-17.34206 16.38086-31.54883 0-2.98812-.41689-5.93201-1.23828-8.80274-.85861-2.90389-1.70365-5.3892-2.53711-7.45312-.83345-2.02525-2.42173-4.4673-4.76563-7.2793-2.33081-2.81861-4.11569-4.90255-5.31445-6.28906-1.2239-1.43208-3.51215-3.47703-6.88672-6.17969-3.34426-2.71375-5.48032-4.40548-6.43164-5.03125h-.00195c-.93771-.65762-3.3717-2.4355-7.29102-5.32031-3.9189-2.91084-6.06651-4.45407-6.44531-4.63672-2.05736-.37077-4.94607-.58008-8.66992-.58008z"/></svg>